<mxfile host="app.diagrams.net" modified="2021-11-08T23:53:39.934Z" agent="5.0 (Windows)" etag="5a-hYYRt-IzibO4vRKol" version="15.4.0" type="github">
  <diagram id="G6rUa41GsJUx-7rn6tBx" name="Page-1">
    <mxGraphModel dx="1648" dy="905" grid="1" gridSize="10" guides="1" tooltips="1" connect="1" arrows="1" fold="1" page="1" pageScale="1" pageWidth="850" pageHeight="1100" math="0" shadow="0">
      <root>
        <mxCell id="0" />
        <mxCell id="1" parent="0" />
        <mxCell id="gT6G1phwhM6Z4HdWbi-U-2" value="" style="endArrow=classic;html=1;endFill=1;exitX=0.25;exitY=1;exitDx=0;exitDy=0;" parent="1" edge="1">
          <mxGeometry x="100" y="100" width="50" height="50" as="geometry">
            <mxPoint x="110" y="305" as="sourcePoint" />
            <mxPoint x="370" y="305" as="targetPoint" />
          </mxGeometry>
        </mxCell>
        <mxCell id="gT6G1phwhM6Z4HdWbi-U-3" value="" style="shape=waypoint;sketch=0;fillStyle=solid;size=6;pointerEvents=1;points=[];fillColor=#e51400;resizable=0;rotatable=0;perimeter=centerPerimeter;snapToPoint=1;strokeColor=#B20000;fontColor=#ffffff;" parent="1" vertex="1">
          <mxGeometry x="130" y="245" width="40" height="40" as="geometry" />
        </mxCell>
        <mxCell id="gT6G1phwhM6Z4HdWbi-U-4" value="" style="line;strokeWidth=1;direction=south;html=1;" parent="1" vertex="1">
          <mxGeometry x="145" y="300" width="10" height="10" as="geometry" />
        </mxCell>
        <mxCell id="gT6G1phwhM6Z4HdWbi-U-5" value="" style="line;strokeWidth=1;direction=south;html=1;" parent="1" vertex="1">
          <mxGeometry x="185" y="300" width="10" height="10" as="geometry" />
        </mxCell>
        <mxCell id="gT6G1phwhM6Z4HdWbi-U-6" value="" style="shape=waypoint;sketch=0;fillStyle=solid;size=6;pointerEvents=1;points=[];fillColor=#e51400;resizable=0;rotatable=0;perimeter=centerPerimeter;snapToPoint=1;strokeColor=#B20000;fontColor=#ffffff;" parent="1" vertex="1">
          <mxGeometry x="170" y="235" width="40" height="40" as="geometry" />
        </mxCell>
        <mxCell id="gT6G1phwhM6Z4HdWbi-U-7" value="" style="line;strokeWidth=1;direction=south;html=1;" parent="1" vertex="1">
          <mxGeometry x="225" y="300" width="10" height="10" as="geometry" />
        </mxCell>
        <mxCell id="gT6G1phwhM6Z4HdWbi-U-8" value="" style="shape=waypoint;sketch=0;fillStyle=solid;size=6;pointerEvents=1;points=[];fillColor=#e51400;resizable=0;rotatable=0;perimeter=centerPerimeter;snapToPoint=1;strokeColor=#B20000;fontColor=#ffffff;" parent="1" vertex="1">
          <mxGeometry x="210" y="255" width="40" height="40" as="geometry" />
        </mxCell>
        <mxCell id="gT6G1phwhM6Z4HdWbi-U-9" value="" style="shape=waypoint;sketch=0;fillStyle=solid;size=6;pointerEvents=1;points=[];fillColor=#e51400;resizable=0;rotatable=0;perimeter=centerPerimeter;snapToPoint=1;strokeColor=#B20000;fontColor=#ffffff;" parent="1" vertex="1">
          <mxGeometry x="250" y="225" width="40" height="40" as="geometry" />
        </mxCell>
        <mxCell id="gT6G1phwhM6Z4HdWbi-U-10" value="" style="shape=waypoint;sketch=0;fillStyle=solid;size=6;pointerEvents=1;points=[];fillColor=#e51400;resizable=0;rotatable=0;perimeter=centerPerimeter;snapToPoint=1;strokeColor=#B20000;fontColor=#ffffff;" parent="1" vertex="1">
          <mxGeometry x="290" y="255" width="40" height="40" as="geometry" />
        </mxCell>
        <mxCell id="gT6G1phwhM6Z4HdWbi-U-11" value="" style="line;strokeWidth=1;direction=south;html=1;" parent="1" vertex="1">
          <mxGeometry x="265" y="300" width="10" height="10" as="geometry" />
        </mxCell>
        <mxCell id="gT6G1phwhM6Z4HdWbi-U-12" value="" style="line;strokeWidth=1;direction=south;html=1;" parent="1" vertex="1">
          <mxGeometry x="305" y="300" width="10" height="10" as="geometry" />
        </mxCell>
        <mxCell id="gT6G1phwhM6Z4HdWbi-U-13" value="" style="line;strokeWidth=1;direction=south;html=1;" parent="1" vertex="1">
          <mxGeometry x="345" y="300" width="10" height="10" as="geometry" />
        </mxCell>
        <mxCell id="gT6G1phwhM6Z4HdWbi-U-14" value="" style="shape=waypoint;sketch=0;fillStyle=solid;size=6;pointerEvents=1;points=[];fillColor=#60a917;resizable=0;rotatable=0;perimeter=centerPerimeter;snapToPoint=1;strokeColor=#2D7600;fontColor=#ffffff;" parent="1" vertex="1">
          <mxGeometry x="130" y="185" width="40" height="40" as="geometry" />
        </mxCell>
        <mxCell id="gT6G1phwhM6Z4HdWbi-U-15" value="" style="shape=waypoint;sketch=0;fillStyle=solid;size=6;pointerEvents=1;points=[];fillColor=#60a917;resizable=0;rotatable=0;perimeter=centerPerimeter;snapToPoint=1;strokeColor=#2D7600;fontColor=#ffffff;" parent="1" vertex="1">
          <mxGeometry x="170" y="175" width="40" height="40" as="geometry" />
        </mxCell>
        <mxCell id="gT6G1phwhM6Z4HdWbi-U-16" value="" style="shape=waypoint;sketch=0;fillStyle=solid;size=6;pointerEvents=1;points=[];fillColor=#60a917;resizable=0;rotatable=0;perimeter=centerPerimeter;snapToPoint=1;strokeColor=#2D7600;fontColor=#ffffff;" parent="1" vertex="1">
          <mxGeometry x="210" y="195" width="40" height="40" as="geometry" />
        </mxCell>
        <mxCell id="gT6G1phwhM6Z4HdWbi-U-17" value="" style="shape=waypoint;sketch=0;fillStyle=solid;size=6;pointerEvents=1;points=[];fillColor=#60a917;resizable=0;rotatable=0;perimeter=centerPerimeter;snapToPoint=1;strokeColor=#2D7600;fontColor=#ffffff;" parent="1" vertex="1">
          <mxGeometry x="250" y="185" width="40" height="40" as="geometry" />
        </mxCell>
        <mxCell id="gT6G1phwhM6Z4HdWbi-U-18" value="" style="shape=waypoint;sketch=0;fillStyle=solid;size=6;pointerEvents=1;points=[];fillColor=#60a917;resizable=0;rotatable=0;perimeter=centerPerimeter;snapToPoint=1;strokeColor=#2D7600;fontColor=#ffffff;" parent="1" vertex="1">
          <mxGeometry x="290" y="165" width="40" height="40" as="geometry" />
        </mxCell>
        <mxCell id="gT6G1phwhM6Z4HdWbi-U-19" value="" style="line;strokeWidth=2;html=1;fillColor=#60a917;strokeColor=#2D7600;fontColor=#ffffff;dashed=1;" parent="1" vertex="1">
          <mxGeometry x="150" y="200" width="40" height="10" as="geometry" />
        </mxCell>
        <mxCell id="gT6G1phwhM6Z4HdWbi-U-20" value="" style="line;strokeWidth=2;html=1;fillColor=#60a917;strokeColor=#2D7600;fontColor=#ffffff;dashed=1;" parent="1" vertex="1">
          <mxGeometry x="190" y="190" width="40" height="10" as="geometry" />
        </mxCell>
        <mxCell id="gT6G1phwhM6Z4HdWbi-U-21" value="" style="line;strokeWidth=2;html=1;fillColor=#60a917;strokeColor=#2D7600;fontColor=#ffffff;dashed=1;" parent="1" vertex="1">
          <mxGeometry x="230" y="210" width="40" height="10" as="geometry" />
        </mxCell>
        <mxCell id="gT6G1phwhM6Z4HdWbi-U-22" value="" style="line;strokeWidth=2;html=1;fillColor=#60a917;strokeColor=#2D7600;fontColor=#ffffff;dashed=1;" parent="1" vertex="1">
          <mxGeometry x="270" y="200" width="40" height="10" as="geometry" />
        </mxCell>
        <mxCell id="gT6G1phwhM6Z4HdWbi-U-23" value="" style="line;strokeWidth=2;html=1;fillColor=#60a917;strokeColor=#2D7600;fontColor=#ffffff;dashed=1;" parent="1" vertex="1">
          <mxGeometry x="310" y="180" width="40" height="10" as="geometry" />
        </mxCell>
        <mxCell id="gT6G1phwhM6Z4HdWbi-U-24" value="" style="shape=waypoint;sketch=0;fillStyle=solid;size=6;pointerEvents=1;points=[];fillColor=#1ba1e2;resizable=0;rotatable=0;perimeter=centerPerimeter;snapToPoint=1;strokeColor=#006EAF;fontColor=#ffffff;" parent="1" vertex="1">
          <mxGeometry x="130" y="140" width="40" height="40" as="geometry" />
        </mxCell>
        <mxCell id="gT6G1phwhM6Z4HdWbi-U-25" value="" style="shape=waypoint;sketch=0;fillStyle=solid;size=6;pointerEvents=1;points=[];fillColor=#1ba1e2;resizable=0;rotatable=0;perimeter=centerPerimeter;snapToPoint=1;strokeColor=#006EAF;fontColor=#ffffff;" parent="1" vertex="1">
          <mxGeometry x="170" y="120" width="40" height="40" as="geometry" />
        </mxCell>
        <mxCell id="gT6G1phwhM6Z4HdWbi-U-26" value="" style="shape=waypoint;sketch=0;fillStyle=solid;size=6;pointerEvents=1;points=[];fillColor=#1ba1e2;resizable=0;rotatable=0;perimeter=centerPerimeter;snapToPoint=1;strokeColor=#006EAF;fontColor=#ffffff;" parent="1" vertex="1">
          <mxGeometry x="210" y="140" width="40" height="40" as="geometry" />
        </mxCell>
        <mxCell id="gT6G1phwhM6Z4HdWbi-U-27" value="" style="shape=waypoint;sketch=0;fillStyle=solid;size=6;pointerEvents=1;points=[];fillColor=#1ba1e2;resizable=0;rotatable=0;perimeter=centerPerimeter;snapToPoint=1;strokeColor=#006EAF;fontColor=#ffffff;" parent="1" vertex="1">
          <mxGeometry x="250" y="130" width="40" height="40" as="geometry" />
        </mxCell>
        <mxCell id="gT6G1phwhM6Z4HdWbi-U-28" value="" style="shape=waypoint;sketch=0;fillStyle=solid;size=6;pointerEvents=1;points=[];fillColor=#1ba1e2;resizable=0;rotatable=0;perimeter=centerPerimeter;snapToPoint=1;strokeColor=#006EAF;fontColor=#ffffff;" parent="1" vertex="1">
          <mxGeometry x="290" y="120" width="40" height="40" as="geometry" />
        </mxCell>
        <mxCell id="gT6G1phwhM6Z4HdWbi-U-29" value="t&lt;sub style=&quot;font-size: 10px;&quot;&gt;0&lt;/sub&gt;" style="text;html=1;strokeColor=none;fillColor=none;align=center;verticalAlign=middle;whiteSpace=wrap;rounded=0;fontSize=10;" parent="1" vertex="1">
          <mxGeometry x="130" y="310" width="40" height="20" as="geometry" />
        </mxCell>
        <mxCell id="gT6G1phwhM6Z4HdWbi-U-30" value="t&lt;sub style=&quot;font-size: 10px;&quot;&gt;1&lt;/sub&gt;" style="text;html=1;strokeColor=none;fillColor=none;align=center;verticalAlign=middle;whiteSpace=wrap;rounded=0;fontSize=10;" parent="1" vertex="1">
          <mxGeometry x="170" y="310" width="40" height="20" as="geometry" />
        </mxCell>
        <mxCell id="gT6G1phwhM6Z4HdWbi-U-31" value="t&lt;sub style=&quot;font-size: 10px;&quot;&gt;2&lt;/sub&gt;" style="text;html=1;strokeColor=none;fillColor=none;align=center;verticalAlign=middle;whiteSpace=wrap;rounded=0;fontSize=10;" parent="1" vertex="1">
          <mxGeometry x="210" y="310" width="40" height="20" as="geometry" />
        </mxCell>
        <mxCell id="gT6G1phwhM6Z4HdWbi-U-32" value="t&lt;sub style=&quot;font-size: 10px;&quot;&gt;3&lt;/sub&gt;" style="text;html=1;strokeColor=none;fillColor=none;align=center;verticalAlign=middle;whiteSpace=wrap;rounded=0;fontSize=10;" parent="1" vertex="1">
          <mxGeometry x="250" y="310" width="40" height="20" as="geometry" />
        </mxCell>
        <mxCell id="gT6G1phwhM6Z4HdWbi-U-33" value="t&lt;sub style=&quot;font-size: 10px;&quot;&gt;4&lt;/sub&gt;" style="text;html=1;strokeColor=none;fillColor=none;align=center;verticalAlign=middle;whiteSpace=wrap;rounded=0;fontSize=10;" parent="1" vertex="1">
          <mxGeometry x="290" y="310" width="40" height="20" as="geometry" />
        </mxCell>
        <mxCell id="gT6G1phwhM6Z4HdWbi-U-34" value="t&lt;sub style=&quot;font-size: 10px;&quot;&gt;5&lt;/sub&gt;" style="text;html=1;strokeColor=none;fillColor=none;align=center;verticalAlign=middle;whiteSpace=wrap;rounded=0;fontSize=10;" parent="1" vertex="1">
          <mxGeometry x="330" y="310" width="40" height="20" as="geometry" />
        </mxCell>
        <mxCell id="gT6G1phwhM6Z4HdWbi-U-35" value="&lt;div&gt;y&lt;sub&gt;t&lt;/sub&gt;&lt;/div&gt;&lt;div&gt;&lt;span style=&quot;font-weight: normal&quot;&gt;(output)&lt;/span&gt;&lt;/div&gt;" style="text;align=center;verticalAlign=middle;rounded=0;fontColor=#004C99;fontStyle=1;spacing=0;whiteSpace=wrap;html=1;" parent="1" vertex="1">
          <mxGeometry x="100" y="120" width="40" height="45" as="geometry" />
        </mxCell>
        <mxCell id="gT6G1phwhM6Z4HdWbi-U-36" value="&lt;div&gt;z&lt;sub&gt;t&lt;/sub&gt;&lt;/div&gt;&lt;div&gt;&lt;sub&gt;&lt;span style=&quot;font-weight: normal&quot;&gt;(hidden state)&lt;/span&gt;&lt;br&gt;&lt;/sub&gt;&lt;/div&gt;" style="text;html=1;align=center;verticalAlign=middle;whiteSpace=wrap;rounded=0;fontColor=#336600;fontStyle=1" parent="1" vertex="1">
          <mxGeometry x="100" y="165" width="40" height="55" as="geometry" />
        </mxCell>
        <mxCell id="gT6G1phwhM6Z4HdWbi-U-37" value="&lt;div&gt;x&lt;sub&gt;t&lt;/sub&gt;&lt;/div&gt;&lt;div&gt;&lt;sub&gt;&lt;span style=&quot;font-weight: normal&quot;&gt;(input)&lt;/span&gt;&lt;br&gt;&lt;/sub&gt;&lt;/div&gt;" style="text;html=1;align=center;verticalAlign=middle;whiteSpace=wrap;rounded=0;fontStyle=1;fontColor=#990000;" parent="1" vertex="1">
          <mxGeometry x="100" y="235" width="40" height="50" as="geometry" />
        </mxCell>
        <mxCell id="gT6G1phwhM6Z4HdWbi-U-38" value="" style="endArrow=none;dashed=1;html=1;fontColor=#000000;exitX=0.582;exitY=0.503;exitDx=0;exitDy=0;exitPerimeter=0;fillColor=#1ba1e2;strokeColor=#006EAF;" parent="1" source="gT6G1phwhM6Z4HdWbi-U-24" edge="1">
          <mxGeometry x="100" y="100" width="50" height="50" as="geometry">
            <mxPoint x="250" y="185" as="sourcePoint" />
            <mxPoint x="190" y="160" as="targetPoint" />
          </mxGeometry>
        </mxCell>
        <mxCell id="gT6G1phwhM6Z4HdWbi-U-39" value="" style="endArrow=none;dashed=1;html=1;fontColor=#000000;exitX=0.582;exitY=0.503;exitDx=0;exitDy=0;exitPerimeter=0;fillColor=#1ba1e2;strokeColor=#006EAF;" parent="1" edge="1">
          <mxGeometry x="100" y="100" width="50" height="50" as="geometry">
            <mxPoint x="190" y="139.67000000000007" as="sourcePoint" />
            <mxPoint x="230" y="139.67000000000007" as="targetPoint" />
          </mxGeometry>
        </mxCell>
        <mxCell id="gT6G1phwhM6Z4HdWbi-U-40" value="" style="endArrow=none;dashed=1;html=1;fontColor=#000000;exitX=0.582;exitY=0.503;exitDx=0;exitDy=0;exitPerimeter=0;fillColor=#1ba1e2;strokeColor=#006EAF;" parent="1" edge="1">
          <mxGeometry x="100" y="100" width="50" height="50" as="geometry">
            <mxPoint x="230" y="159.67000000000007" as="sourcePoint" />
            <mxPoint x="270" y="159.67000000000007" as="targetPoint" />
          </mxGeometry>
        </mxCell>
        <mxCell id="gT6G1phwhM6Z4HdWbi-U-41" value="" style="endArrow=none;dashed=1;html=1;fontColor=#000000;exitX=0.582;exitY=0.503;exitDx=0;exitDy=0;exitPerimeter=0;fillColor=#1ba1e2;strokeColor=#006EAF;" parent="1" edge="1">
          <mxGeometry x="100" y="100" width="50" height="50" as="geometry">
            <mxPoint x="270" y="150" as="sourcePoint" />
            <mxPoint x="310" y="150" as="targetPoint" />
          </mxGeometry>
        </mxCell>
        <mxCell id="gT6G1phwhM6Z4HdWbi-U-42" value="" style="endArrow=none;dashed=1;html=1;fontColor=#000000;exitX=0.582;exitY=0.503;exitDx=0;exitDy=0;exitPerimeter=0;fillColor=#1ba1e2;strokeColor=#006EAF;" parent="1" edge="1">
          <mxGeometry x="100" y="100" width="50" height="50" as="geometry">
            <mxPoint x="310" y="139.43000000000006" as="sourcePoint" />
            <mxPoint x="350" y="139.43000000000006" as="targetPoint" />
          </mxGeometry>
        </mxCell>
        <mxCell id="gT6G1phwhM6Z4HdWbi-U-43" value="" style="endArrow=classic;html=1;endFill=1;exitX=0.178;exitY=0.97;exitDx=0;exitDy=0;exitPerimeter=0;" parent="1" source="gT6G1phwhM6Z4HdWbi-U-72" edge="1">
          <mxGeometry x="100" y="100" width="50" height="50" as="geometry">
            <mxPoint x="430" y="305" as="sourcePoint" />
            <mxPoint x="670" y="305" as="targetPoint" />
          </mxGeometry>
        </mxCell>
        <mxCell id="gT6G1phwhM6Z4HdWbi-U-44" value="" style="shape=waypoint;sketch=0;fillStyle=solid;size=6;pointerEvents=1;points=[];fillColor=#e51400;resizable=0;rotatable=0;perimeter=centerPerimeter;snapToPoint=1;strokeColor=#B20000;fontColor=#ffffff;" parent="1" vertex="1">
          <mxGeometry x="430" y="245" width="40" height="40" as="geometry" />
        </mxCell>
        <mxCell id="gT6G1phwhM6Z4HdWbi-U-45" value="" style="line;strokeWidth=1;direction=south;html=1;" parent="1" vertex="1">
          <mxGeometry x="445" y="300" width="10" height="10" as="geometry" />
        </mxCell>
        <mxCell id="gT6G1phwhM6Z4HdWbi-U-46" value="" style="line;strokeWidth=1;direction=south;html=1;" parent="1" vertex="1">
          <mxGeometry x="485" y="300" width="10" height="10" as="geometry" />
        </mxCell>
        <mxCell id="gT6G1phwhM6Z4HdWbi-U-47" value="" style="shape=waypoint;sketch=0;fillStyle=solid;size=6;pointerEvents=1;points=[];fillColor=#e51400;resizable=0;rotatable=0;perimeter=centerPerimeter;snapToPoint=1;strokeColor=#B20000;fontColor=#ffffff;" parent="1" vertex="1">
          <mxGeometry x="470" y="235" width="40" height="40" as="geometry" />
        </mxCell>
        <mxCell id="gT6G1phwhM6Z4HdWbi-U-48" value="" style="line;strokeWidth=1;direction=south;html=1;" parent="1" vertex="1">
          <mxGeometry x="525" y="300" width="10" height="10" as="geometry" />
        </mxCell>
        <mxCell id="gT6G1phwhM6Z4HdWbi-U-49" value="" style="shape=waypoint;sketch=0;fillStyle=solid;size=6;pointerEvents=1;points=[];fillColor=#e51400;resizable=0;rotatable=0;perimeter=centerPerimeter;snapToPoint=1;strokeColor=#B20000;fontColor=#ffffff;" parent="1" vertex="1">
          <mxGeometry x="510" y="255" width="40" height="40" as="geometry" />
        </mxCell>
        <mxCell id="gT6G1phwhM6Z4HdWbi-U-50" value="" style="shape=waypoint;sketch=0;fillStyle=solid;size=6;pointerEvents=1;points=[];fillColor=#e51400;resizable=0;rotatable=0;perimeter=centerPerimeter;snapToPoint=1;strokeColor=#B20000;fontColor=#ffffff;" parent="1" vertex="1">
          <mxGeometry x="550" y="225" width="40" height="40" as="geometry" />
        </mxCell>
        <mxCell id="gT6G1phwhM6Z4HdWbi-U-51" value="" style="shape=waypoint;sketch=0;fillStyle=solid;size=6;pointerEvents=1;points=[];fillColor=#e51400;resizable=0;rotatable=0;perimeter=centerPerimeter;snapToPoint=1;strokeColor=#B20000;fontColor=#ffffff;" parent="1" vertex="1">
          <mxGeometry x="590" y="245" width="40" height="40" as="geometry" />
        </mxCell>
        <mxCell id="gT6G1phwhM6Z4HdWbi-U-52" value="" style="line;strokeWidth=1;direction=south;html=1;" parent="1" vertex="1">
          <mxGeometry x="565" y="300" width="10" height="10" as="geometry" />
        </mxCell>
        <mxCell id="gT6G1phwhM6Z4HdWbi-U-53" value="" style="line;strokeWidth=1;direction=south;html=1;" parent="1" vertex="1">
          <mxGeometry x="605" y="300" width="10" height="10" as="geometry" />
        </mxCell>
        <mxCell id="gT6G1phwhM6Z4HdWbi-U-54" value="" style="line;strokeWidth=1;direction=south;html=1;" parent="1" vertex="1">
          <mxGeometry x="645" y="300" width="10" height="10" as="geometry" />
        </mxCell>
        <mxCell id="gT6G1phwhM6Z4HdWbi-U-55" value="" style="shape=waypoint;sketch=0;fillStyle=solid;size=6;pointerEvents=1;points=[];fillColor=#e51400;resizable=0;rotatable=0;perimeter=centerPerimeter;snapToPoint=1;strokeColor=#B20000;fontColor=#ffffff;" parent="1" vertex="1">
          <mxGeometry x="630" y="235" width="40" height="40" as="geometry" />
        </mxCell>
        <mxCell id="gT6G1phwhM6Z4HdWbi-U-56" value="" style="shape=waypoint;sketch=0;fillStyle=solid;size=6;pointerEvents=1;points=[];fillColor=#60a917;resizable=0;rotatable=0;perimeter=centerPerimeter;snapToPoint=1;strokeColor=#2D7600;fontColor=#ffffff;" parent="1" vertex="1">
          <mxGeometry x="430" y="185" width="40" height="40" as="geometry" />
        </mxCell>
        <mxCell id="gT6G1phwhM6Z4HdWbi-U-57" value="" style="shape=waypoint;sketch=0;fillStyle=solid;size=6;pointerEvents=1;points=[];fillColor=#60a917;resizable=0;rotatable=0;perimeter=centerPerimeter;snapToPoint=1;strokeColor=#2D7600;fontColor=#ffffff;" parent="1" vertex="1">
          <mxGeometry x="470" y="175" width="40" height="40" as="geometry" />
        </mxCell>
        <mxCell id="gT6G1phwhM6Z4HdWbi-U-58" value="" style="shape=waypoint;sketch=0;fillStyle=solid;size=6;pointerEvents=1;points=[];fillColor=#60a917;resizable=0;rotatable=0;perimeter=centerPerimeter;snapToPoint=1;strokeColor=#2D7600;fontColor=#ffffff;" parent="1" vertex="1">
          <mxGeometry x="510" y="195" width="40" height="40" as="geometry" />
        </mxCell>
        <mxCell id="gT6G1phwhM6Z4HdWbi-U-59" value="" style="shape=waypoint;sketch=0;fillStyle=solid;size=6;pointerEvents=1;points=[];fillColor=#60a917;resizable=0;rotatable=0;perimeter=centerPerimeter;snapToPoint=1;strokeColor=#2D7600;fontColor=#ffffff;" parent="1" vertex="1">
          <mxGeometry x="550" y="185" width="40" height="40" as="geometry" />
        </mxCell>
        <mxCell id="gT6G1phwhM6Z4HdWbi-U-60" value="" style="shape=waypoint;sketch=0;fillStyle=solid;size=6;pointerEvents=1;points=[];fillColor=#60a917;resizable=0;rotatable=0;perimeter=centerPerimeter;snapToPoint=1;strokeColor=#2D7600;fontColor=#ffffff;" parent="1" vertex="1">
          <mxGeometry x="590" y="165" width="40" height="40" as="geometry" />
        </mxCell>
        <mxCell id="gT6G1phwhM6Z4HdWbi-U-61" value="" style="shape=waypoint;sketch=0;fillStyle=solid;size=6;pointerEvents=1;points=[];fillColor=#1ba1e2;resizable=0;rotatable=0;perimeter=centerPerimeter;snapToPoint=1;strokeColor=#006EAF;fontColor=#ffffff;" parent="1" vertex="1">
          <mxGeometry x="430" y="140" width="40" height="40" as="geometry" />
        </mxCell>
        <mxCell id="gT6G1phwhM6Z4HdWbi-U-62" value="" style="shape=waypoint;sketch=0;fillStyle=solid;size=6;pointerEvents=1;points=[];fillColor=#1ba1e2;resizable=0;rotatable=0;perimeter=centerPerimeter;snapToPoint=1;strokeColor=#006EAF;fontColor=#ffffff;" parent="1" vertex="1">
          <mxGeometry x="510" y="140" width="40" height="40" as="geometry" />
        </mxCell>
        <mxCell id="gT6G1phwhM6Z4HdWbi-U-63" value="t&lt;sub style=&quot;font-size: 11px;&quot;&gt;0&lt;/sub&gt;" style="text;html=1;strokeColor=none;fillColor=none;align=center;verticalAlign=middle;whiteSpace=wrap;rounded=0;fontSize=11;" parent="1" vertex="1">
          <mxGeometry x="430" y="310" width="40" height="20" as="geometry" />
        </mxCell>
        <mxCell id="gT6G1phwhM6Z4HdWbi-U-64" value="t&lt;sub style=&quot;font-size: 11px;&quot;&gt;1&lt;/sub&gt;" style="text;html=1;strokeColor=none;fillColor=none;align=center;verticalAlign=middle;whiteSpace=wrap;rounded=0;fontSize=11;" parent="1" vertex="1">
          <mxGeometry x="470" y="310" width="40" height="20" as="geometry" />
        </mxCell>
        <mxCell id="gT6G1phwhM6Z4HdWbi-U-65" value="t&lt;sub style=&quot;font-size: 11px;&quot;&gt;2&lt;/sub&gt;" style="text;html=1;strokeColor=none;fillColor=none;align=center;verticalAlign=middle;whiteSpace=wrap;rounded=0;fontSize=11;" parent="1" vertex="1">
          <mxGeometry x="510" y="310" width="40" height="20" as="geometry" />
        </mxCell>
        <mxCell id="gT6G1phwhM6Z4HdWbi-U-66" value="t&lt;sub style=&quot;font-size: 11px;&quot;&gt;3&lt;/sub&gt;" style="text;html=1;strokeColor=none;fillColor=none;align=center;verticalAlign=middle;whiteSpace=wrap;rounded=0;fontSize=11;" parent="1" vertex="1">
          <mxGeometry x="550" y="310" width="40" height="20" as="geometry" />
        </mxCell>
        <mxCell id="gT6G1phwhM6Z4HdWbi-U-67" value="t&lt;sub style=&quot;font-size: 11px;&quot;&gt;4&lt;/sub&gt;" style="text;html=1;strokeColor=none;fillColor=none;align=center;verticalAlign=middle;whiteSpace=wrap;rounded=0;fontSize=11;" parent="1" vertex="1">
          <mxGeometry x="590" y="310" width="40" height="20" as="geometry" />
        </mxCell>
        <mxCell id="gT6G1phwhM6Z4HdWbi-U-68" value="t&lt;sub style=&quot;font-size: 11px;&quot;&gt;5&lt;/sub&gt;" style="text;html=1;strokeColor=none;fillColor=none;align=center;verticalAlign=middle;whiteSpace=wrap;rounded=0;fontSize=11;" parent="1" vertex="1">
          <mxGeometry x="630" y="310" width="40" height="20" as="geometry" />
        </mxCell>
        <mxCell id="gT6G1phwhM6Z4HdWbi-U-69" value="y&lt;sub&gt;t&lt;/sub&gt;" style="text;html=1;align=center;verticalAlign=middle;whiteSpace=wrap;rounded=0;fontColor=#004C99;fontStyle=1" parent="1" vertex="1">
          <mxGeometry x="400" y="150" width="40" height="20" as="geometry" />
        </mxCell>
        <mxCell id="gT6G1phwhM6Z4HdWbi-U-70" value="z&lt;sub&gt;t&lt;/sub&gt;" style="text;html=1;align=center;verticalAlign=middle;whiteSpace=wrap;rounded=0;fontColor=#336600;fontStyle=1" parent="1" vertex="1">
          <mxGeometry x="400" y="195" width="40" height="20" as="geometry" />
        </mxCell>
        <mxCell id="gT6G1phwhM6Z4HdWbi-U-71" value="x&lt;sub&gt;t&lt;/sub&gt;" style="text;html=1;align=center;verticalAlign=middle;whiteSpace=wrap;rounded=0;fontStyle=1;fontColor=#990000;" parent="1" vertex="1">
          <mxGeometry x="400" y="255" width="40" height="20" as="geometry" />
        </mxCell>
        <mxCell id="gT6G1phwhM6Z4HdWbi-U-72" value="time" style="text;html=1;strokeColor=none;fillColor=none;align=center;verticalAlign=middle;whiteSpace=wrap;rounded=0;" parent="1" vertex="1">
          <mxGeometry x="400" y="285" width="40" height="20" as="geometry" />
        </mxCell>
        <mxCell id="gT6G1phwhM6Z4HdWbi-U-73" value="" style="shape=waypoint;sketch=0;fillStyle=solid;size=6;pointerEvents=1;points=[];fillColor=#e51400;resizable=0;rotatable=0;perimeter=centerPerimeter;snapToPoint=1;strokeColor=#B20000;fontColor=#ffffff;" parent="1" vertex="1">
          <mxGeometry x="330" y="245" width="40" height="40" as="geometry" />
        </mxCell>
        <mxCell id="gT6G1phwhM6Z4HdWbi-U-74" value="" style="endArrow=none;dashed=1;html=1;fontColor=#000000;exitX=0.582;exitY=0.503;exitDx=0;exitDy=0;exitPerimeter=0;fillColor=#1ba1e2;strokeColor=#006EAF;" parent="1" edge="1">
          <mxGeometry x="100" y="100" width="50" height="50" as="geometry">
            <mxPoint x="570" y="150" as="sourcePoint" />
            <mxPoint x="570" y="150" as="targetPoint" />
          </mxGeometry>
        </mxCell>
        <mxCell id="gT6G1phwhM6Z4HdWbi-U-75" value="" style="curved=1;endArrow=none;html=1;fontColor=#000000;endFill=0;fillColor=#60a917;strokeColor=#2D7600;" parent="1" edge="1">
          <mxGeometry x="100" y="100" width="50" height="50" as="geometry">
            <mxPoint x="450" y="205" as="sourcePoint" />
            <mxPoint x="490" y="185" as="targetPoint" />
            <Array as="points">
              <mxPoint x="460" y="205" />
              <mxPoint x="470" y="195" />
              <mxPoint x="480" y="185" />
            </Array>
          </mxGeometry>
        </mxCell>
        <mxCell id="gT6G1phwhM6Z4HdWbi-U-76" value="" style="curved=1;endArrow=none;html=1;fontColor=#000000;endFill=0;fillColor=#60a917;strokeColor=#2D7600;" parent="1" edge="1">
          <mxGeometry x="100" y="100" width="50" height="50" as="geometry">
            <mxPoint x="530" y="215" as="sourcePoint" />
            <mxPoint x="570" y="195" as="targetPoint" />
            <Array as="points">
              <mxPoint x="535" y="205" />
              <mxPoint x="550" y="205" />
              <mxPoint x="560" y="195" />
            </Array>
          </mxGeometry>
        </mxCell>
        <mxCell id="gT6G1phwhM6Z4HdWbi-U-77" value="" style="curved=1;endArrow=none;html=1;fontColor=#000000;endFill=0;fillColor=#60a917;strokeColor=#2D7600;" parent="1" edge="1">
          <mxGeometry x="100" y="100" width="50" height="50" as="geometry">
            <mxPoint x="610" y="185" as="sourcePoint" />
            <mxPoint x="650" y="195" as="targetPoint" />
            <Array as="points">
              <mxPoint x="620" y="175" />
              <mxPoint x="630" y="185" />
              <mxPoint x="640" y="195" />
            </Array>
          </mxGeometry>
        </mxCell>
        <mxCell id="gT6G1phwhM6Z4HdWbi-U-78" value="" style="curved=1;endArrow=none;html=1;fontColor=#000000;endFill=0;exitX=0.549;exitY=0.511;exitDx=0;exitDy=0;exitPerimeter=0;fillColor=#60a917;strokeColor=#2D7600;" parent="1" edge="1">
          <mxGeometry x="100" y="100" width="50" height="50" as="geometry">
            <mxPoint x="490" y="195" as="sourcePoint" />
            <mxPoint x="530" y="205" as="targetPoint" />
            <Array as="points">
              <mxPoint x="500" y="185" />
              <mxPoint x="515" y="195" />
              <mxPoint x="525" y="205" />
            </Array>
          </mxGeometry>
        </mxCell>
        <mxCell id="gT6G1phwhM6Z4HdWbi-U-79" value="" style="curved=1;endArrow=none;html=1;fontColor=#000000;endFill=0;exitX=0.549;exitY=0.511;exitDx=0;exitDy=0;exitPerimeter=0;fillColor=#60a917;strokeColor=#2D7600;" parent="1" edge="1">
          <mxGeometry x="100" y="100" width="50" height="50" as="geometry">
            <mxPoint x="570" y="205" as="sourcePoint" />
            <mxPoint x="610" y="195" as="targetPoint" />
            <Array as="points">
              <mxPoint x="580" y="195" />
              <mxPoint x="600" y="205" />
            </Array>
          </mxGeometry>
        </mxCell>
        <mxCell id="gT6G1phwhM6Z4HdWbi-U-80" value="" style="curved=1;endArrow=none;html=1;fontColor=#000000;endFill=0;fillColor=#1ba1e2;strokeColor=#006EAF;" parent="1" edge="1">
          <mxGeometry x="100" y="100" width="50" height="50" as="geometry">
            <mxPoint x="450" y="160" as="sourcePoint" />
            <mxPoint x="490" y="145" as="targetPoint" />
            <Array as="points">
              <mxPoint x="460" y="160" />
              <mxPoint x="470" y="145" />
            </Array>
          </mxGeometry>
        </mxCell>
        <mxCell id="gT6G1phwhM6Z4HdWbi-U-81" value="" style="curved=1;endArrow=none;html=1;fontColor=#000000;endFill=0;exitDx=0;exitDy=0;exitPerimeter=0;fillColor=#1ba1e2;strokeColor=#006EAF;startArrow=none;" parent="1" source="gT6G1phwhM6Z4HdWbi-U-85" edge="1">
          <mxGeometry x="100" y="100" width="50" height="50" as="geometry">
            <mxPoint x="490" y="140" as="sourcePoint" />
            <mxPoint x="530" y="150" as="targetPoint" />
            <Array as="points">
              <mxPoint x="500" y="135" />
              <mxPoint x="515" y="140" />
              <mxPoint x="525" y="150" />
            </Array>
          </mxGeometry>
        </mxCell>
        <mxCell id="gT6G1phwhM6Z4HdWbi-U-82" value="" style="curved=1;endArrow=none;html=1;fontColor=#000000;endFill=0;fillColor=#1ba1e2;strokeColor=#006EAF;" parent="1" edge="1">
          <mxGeometry x="100" y="100" width="50" height="50" as="geometry">
            <mxPoint x="530" y="160" as="sourcePoint" />
            <mxPoint x="570" y="140" as="targetPoint" />
            <Array as="points">
              <mxPoint x="535" y="150" />
              <mxPoint x="550" y="150" />
              <mxPoint x="560" y="140" />
            </Array>
          </mxGeometry>
        </mxCell>
        <mxCell id="gT6G1phwhM6Z4HdWbi-U-83" value="" style="curved=1;endArrow=none;html=1;fontColor=#000000;endFill=0;exitX=0.549;exitY=0.511;exitDx=0;exitDy=0;exitPerimeter=0;fillColor=#1ba1e2;strokeColor=#006EAF;" parent="1" edge="1">
          <mxGeometry x="100" y="100" width="50" height="50" as="geometry">
            <mxPoint x="570" y="150" as="sourcePoint" />
            <mxPoint x="610" y="150" as="targetPoint" />
            <Array as="points">
              <mxPoint x="580" y="140" />
              <mxPoint x="600" y="150" />
            </Array>
          </mxGeometry>
        </mxCell>
        <mxCell id="gT6G1phwhM6Z4HdWbi-U-84" value="" style="curved=1;endArrow=none;html=1;fontColor=#000000;endFill=0;fillColor=#1ba1e2;strokeColor=#006EAF;" parent="1" edge="1">
          <mxGeometry x="100" y="100" width="50" height="50" as="geometry">
            <mxPoint x="610" y="140" as="sourcePoint" />
            <mxPoint x="650" y="150" as="targetPoint" />
            <Array as="points">
              <mxPoint x="620" y="135" />
              <mxPoint x="630" y="140" />
              <mxPoint x="640" y="150" />
            </Array>
          </mxGeometry>
        </mxCell>
        <mxCell id="gT6G1phwhM6Z4HdWbi-U-85" value="" style="shape=waypoint;sketch=0;fillStyle=solid;size=6;pointerEvents=1;points=[];fillColor=#1ba1e2;resizable=0;rotatable=0;perimeter=centerPerimeter;snapToPoint=1;strokeColor=#006EAF;fontColor=#ffffff;" parent="1" vertex="1">
          <mxGeometry x="470" y="120" width="40" height="40" as="geometry" />
        </mxCell>
        <mxCell id="gT6G1phwhM6Z4HdWbi-U-86" value="" style="curved=1;endArrow=none;html=1;fontColor=#000000;endFill=0;exitX=0.549;exitY=0.511;exitDx=0;exitDy=0;exitPerimeter=0;fillColor=#1ba1e2;strokeColor=#006EAF;" parent="1" target="gT6G1phwhM6Z4HdWbi-U-85" edge="1">
          <mxGeometry x="100" y="100" width="50" height="50" as="geometry">
            <mxPoint x="490" y="140" as="sourcePoint" />
            <mxPoint x="530" y="150" as="targetPoint" />
            <Array as="points" />
          </mxGeometry>
        </mxCell>
        <mxCell id="gT6G1phwhM6Z4HdWbi-U-87" value="" style="shape=waypoint;sketch=0;fillStyle=solid;size=6;pointerEvents=1;points=[];fillColor=#1ba1e2;resizable=0;rotatable=0;perimeter=centerPerimeter;snapToPoint=1;strokeColor=#006EAF;fontColor=#ffffff;" parent="1" vertex="1">
          <mxGeometry x="550" y="130" width="40" height="40" as="geometry" />
        </mxCell>
        <mxCell id="gT6G1phwhM6Z4HdWbi-U-88" value="" style="shape=waypoint;sketch=0;fillStyle=solid;size=6;pointerEvents=1;points=[];fillColor=#1ba1e2;resizable=0;rotatable=0;perimeter=centerPerimeter;snapToPoint=1;strokeColor=#006EAF;fontColor=#ffffff;" parent="1" vertex="1">
          <mxGeometry x="590" y="120" width="40" height="40" as="geometry" />
        </mxCell>
        <mxCell id="gT6G1phwhM6Z4HdWbi-U-90" value="" style="endArrow=none;dashed=1;html=1;dashPattern=1 1;strokeWidth=2;fontColor=#000000;opacity=60;fillColor=#60a917;strokeColor=#2D7600;" parent="1" target="gT6G1phwhM6Z4HdWbi-U-57" edge="1">
          <mxGeometry x="100" y="100" width="50" height="50" as="geometry">
            <mxPoint x="490" y="185" as="sourcePoint" />
            <mxPoint x="570" y="145" as="targetPoint" />
          </mxGeometry>
        </mxCell>
        <mxCell id="gT6G1phwhM6Z4HdWbi-U-91" value="" style="endArrow=none;dashed=1;html=1;dashPattern=1 1;strokeWidth=2;fontColor=#000000;opacity=60;fillColor=#60a917;strokeColor=#2D7600;" parent="1" edge="1">
          <mxGeometry x="100" y="100" width="50" height="50" as="geometry">
            <mxPoint x="529.9200000000001" y="205" as="sourcePoint" />
            <mxPoint x="529.9200000000001" y="215" as="targetPoint" />
          </mxGeometry>
        </mxCell>
        <mxCell id="gT6G1phwhM6Z4HdWbi-U-92" value="" style="endArrow=none;dashed=1;html=1;dashPattern=1 1;strokeWidth=2;fontColor=#000000;opacity=60;fillColor=#60a917;strokeColor=#2D7600;" parent="1" edge="1">
          <mxGeometry x="100" y="100" width="50" height="50" as="geometry">
            <mxPoint x="569.9200000000001" y="195" as="sourcePoint" />
            <mxPoint x="569.9200000000001" y="205" as="targetPoint" />
          </mxGeometry>
        </mxCell>
        <mxCell id="gT6G1phwhM6Z4HdWbi-U-93" value="" style="endArrow=none;dashed=1;html=1;dashPattern=1 1;strokeWidth=2;fontColor=#000000;opacity=60;fillColor=#60a917;strokeColor=#2D7600;" parent="1" edge="1">
          <mxGeometry x="100" y="100" width="50" height="50" as="geometry">
            <mxPoint x="609.9200000000001" y="185" as="sourcePoint" />
            <mxPoint x="609.9200000000001" y="195" as="targetPoint" />
          </mxGeometry>
        </mxCell>
        <mxCell id="gT6G1phwhM6Z4HdWbi-U-94" value="z&lt;sub&gt;t1-&lt;/sub&gt;-z&lt;sub&gt;t1&lt;/sub&gt;=RNN(x&lt;sub&gt;t1&lt;/sub&gt;)" style="text;html=1;strokeColor=none;fillColor=none;align=center;verticalAlign=middle;whiteSpace=wrap;rounded=0;dashed=1;fontColor=#000000;fontSize=10;" parent="1" vertex="1">
          <mxGeometry x="505" y="170" width="70" height="15" as="geometry" />
        </mxCell>
        <mxCell id="gT6G1phwhM6Z4HdWbi-U-95" value="&lt;div&gt;z&lt;sub&gt;t2&lt;/sub&gt;-z&lt;sub&gt;t1&lt;/sub&gt;=RNN(x&lt;sub&gt;t1&lt;/sub&gt;)&lt;/div&gt;" style="text;html=1;strokeColor=none;fillColor=none;align=center;verticalAlign=middle;whiteSpace=wrap;rounded=0;dashed=1;fontColor=#000000;fontSize=10;" parent="1" vertex="1">
          <mxGeometry x="245" y="165" width="85" height="20" as="geometry" />
        </mxCell>
        <mxCell id="gT6G1phwhM6Z4HdWbi-U-96" value="z&lt;sub style=&quot;font-size: 8px;&quot;&gt;t1-&lt;/sub&gt;" style="text;html=1;strokeColor=none;fillColor=none;align=center;verticalAlign=middle;whiteSpace=wrap;rounded=0;dashed=1;fontSize=8;fontColor=#000000;" parent="1" vertex="1">
          <mxGeometry x="470" y="155" width="10" height="15" as="geometry" />
        </mxCell>
        <mxCell id="gT6G1phwhM6Z4HdWbi-U-97" value="z&lt;sub style=&quot;font-size: 8px;&quot;&gt;t1&lt;/sub&gt;" style="text;html=1;strokeColor=none;fillColor=none;align=center;verticalAlign=middle;whiteSpace=wrap;rounded=0;dashed=1;fontSize=8;fontColor=#000000;" parent="1" vertex="1">
          <mxGeometry x="470" y="225" width="10" height="10" as="geometry" />
        </mxCell>
        <mxCell id="gT6G1phwhM6Z4HdWbi-U-98" value="" style="endArrow=classic;html=1;fontSize=8;fontColor=#000000;strokeWidth=1;opacity=60;exitX=0.75;exitY=1;exitDx=0;exitDy=0;" parent="1" source="gT6G1phwhM6Z4HdWbi-U-96" edge="1">
          <mxGeometry x="100" y="100" width="50" height="50" as="geometry">
            <mxPoint x="480" y="175" as="sourcePoint" />
            <mxPoint x="490" y="185" as="targetPoint" />
          </mxGeometry>
        </mxCell>
        <mxCell id="gT6G1phwhM6Z4HdWbi-U-99" value="" style="endArrow=classic;html=1;fontSize=8;fontColor=#000000;strokeWidth=1;opacity=60;exitX=0.75;exitY=0;exitDx=0;exitDy=0;" parent="1" source="gT6G1phwhM6Z4HdWbi-U-97" edge="1">
          <mxGeometry x="100" y="100" width="50" height="50" as="geometry">
            <mxPoint x="450" y="205" as="sourcePoint" />
            <mxPoint x="490" y="195" as="targetPoint" />
          </mxGeometry>
        </mxCell>
        <mxCell id="gT6G1phwhM6Z4HdWbi-U-100" value="" style="shape=curlyBracket;whiteSpace=wrap;html=1;rounded=1;fontSize=8;fontColor=#333333;strokeWidth=1;rotation=-180;fillColor=#f5f5f5;strokeColor=#666666;size=0;opacity=60;" parent="1" vertex="1">
          <mxGeometry x="190" y="195" width="5" height="10" as="geometry" />
        </mxCell>
        <mxCell id="gT6G1phwhM6Z4HdWbi-U-103" value="(A)" style="text;html=1;strokeColor=none;fillColor=none;align=center;verticalAlign=middle;whiteSpace=wrap;rounded=0;dashed=1;fontSize=12;opacity=90;fontStyle=1" parent="1" vertex="1">
          <mxGeometry x="105" y="100" width="27.5" height="20" as="geometry" />
        </mxCell>
        <mxCell id="gT6G1phwhM6Z4HdWbi-U-104" value="(B)" style="text;html=1;strokeColor=none;fillColor=none;align=center;verticalAlign=middle;whiteSpace=wrap;rounded=0;dashed=1;fontSize=12;opacity=90;fontStyle=1" parent="1" vertex="1">
          <mxGeometry x="390" y="100" width="30.5" height="20" as="geometry" />
        </mxCell>
        <mxCell id="gT6G1phwhM6Z4HdWbi-U-105" value="" style="endArrow=none;html=1;fontColor=#000000;fillColor=#647687;strokeColor=#314354;opacity=60;strokeWidth=1;endFill=0;exitX=0.25;exitY=1;exitDx=0;exitDy=0;entryX=0.1;entryY=0.5;entryDx=0;entryDy=0;entryPerimeter=0;" parent="1" source="gT6G1phwhM6Z4HdWbi-U-95" target="gT6G1phwhM6Z4HdWbi-U-100" edge="1">
          <mxGeometry x="100" y="100" width="50" height="50" as="geometry">
            <mxPoint x="269.9999999999999" y="170" as="sourcePoint" />
            <mxPoint x="230" y="205" as="targetPoint" />
            <Array as="points">
              <mxPoint x="240" y="200" />
            </Array>
          </mxGeometry>
        </mxCell>
        <mxCell id="gT6G1phwhM6Z4HdWbi-U-106" style="edgeStyle=orthogonalEdgeStyle;rounded=0;orthogonalLoop=1;jettySize=auto;html=1;exitX=0.5;exitY=1;exitDx=0;exitDy=0;" parent="1" source="gT6G1phwhM6Z4HdWbi-U-36" target="gT6G1phwhM6Z4HdWbi-U-36" edge="1">
          <mxGeometry x="100" y="100" as="geometry" />
        </mxCell>
        <mxCell id="gT6G1phwhM6Z4HdWbi-U-107" value="" style="ellipse;whiteSpace=wrap;html=1;aspect=fixed;strokeColor=#0066CC;" parent="1" vertex="1">
          <mxGeometry x="607" y="147" width="6" height="6" as="geometry" />
        </mxCell>
        <mxCell id="gT6G1phwhM6Z4HdWbi-U-108" value="time" style="text;html=1;strokeColor=none;fillColor=none;align=center;verticalAlign=middle;whiteSpace=wrap;rounded=0;" parent="1" vertex="1">
          <mxGeometry x="100" y="285" width="40" height="20" as="geometry" />
        </mxCell>
      </root>
    </mxGraphModel>
  </diagram>
</mxfile>
